<svg xmlns="http://www.w3.org/2000/svg" viewBox="0 0 256 256">
  <path fill="#41D1FF" d="M240 128c0 66.27-53.73 120-120 120S0 194.27 0 128 53.73 8 120 8s120 53.73 120 120z"/>
  <path fill="#fff" d="M120 40c-48.53 0-88 39.47-88 88s39.47 88 88 88 88-39.47 88-88-39.47-88-88-88zm0 160c-39.7 0-72-32.3-72-72s32.3-72 72-72 72 32.3 72 72-32.3 72-72 72z"/>
  <path fill="#41D1FF" d="M120 64c-35.35 0-64 28.65-64 64s28.65 64 64 64 64-28.65 64-64-28.65-64-64-64zm0 112c-26.51 0-48-21.49-48-48s21.49-48 48-48 48 21.49 48 48-21.49 48-48 48z"/>
  <path fill="#fff" d="M120 80c-22.09 0-40 17.91-40 40s17.91 40 40 40 40-17.91 40-40-17.91-40-40-40zm0 64c-13.25 0-24-10.75-24-24s10.75-24 24-24 24 10.75 24 24-10.75 24-24 24z"/>
  <path fill="#41D1FF" d="M120 96c-8.84 0-16 7.16-16 16s7.16 16 16 16 16-7.16 16-16-7.16-16-16-16z"/>
</svg>